<?xml version="1.0" encoding="iso-8859-1"?>
<!-- Generator: Adobe Illustrator 19.0.0, SVG Export Plug-In . SVG Version: 6.00 Build 0)  -->
<svg version="1.1" id="Capa_1" xmlns="http://www.w3.org/2000/svg" xmlns:xlink="http://www.w3.org/1999/xlink" x="0px" y="0px"
	 viewBox="0 0 512.001 512.001" style="enable-background:new 0 0 512.001 512.001;" xml:space="preserve">
<g>
	<g>
		<rect x="120.072" y="271.117" width="29.985" height="29.985"/>
	</g>
</g>
<g>
	<g>
		<rect x="361.953" y="271.117" width="29.985" height="29.985"/>
	</g>
</g>
<g>
	<g>
		<path d="M196.03,392.059v29.985c8.267,0,14.993,6.726,14.993,14.993h29.985C241.008,412.236,220.831,392.059,196.03,392.059z"/>
	</g>
</g>
<g>
	<g>
		<path d="M270.994,437.037h29.985c0-8.267,6.726-14.993,14.993-14.993v-29.985C291.171,392.059,270.994,412.236,270.994,437.037z"
			/>
	</g>
</g>
<g>
	<g>
		<path d="M354.025,48.099c-19.761-11.36-42.655-17.863-67.039-17.863h-61.97c-24.384,0-47.278,6.502-67.039,17.863L0.126,0v45.854
			c0,28.021,10.935,54.284,30.79,73.949c16.434,16.277,37.4,26.469,60.109,29.453c-0.617,5.221-0.943,10.531-0.943,15.915v0.411
			c0,39.359-3.226,78.671-9.587,116.844L66.796,385.899c-4.757,35.602,16.522,69.685,50.597,81.043l40.711,13.263
			c21.839,20.533,50.219,31.796,80.332,31.796h35.13c30.111,0,58.492-11.263,80.332-31.796l40.613-13.229l0.098-0.032
			c34.074-11.358,55.354-45.442,50.6-81.024l-13.626-102.994l-0.075-0.499c-6.362-38.169-9.587-77.482-9.587-116.844v-0.411
			c0-5.384-0.327-10.694-0.943-15.915c22.709-2.984,43.675-13.177,60.109-29.453c19.855-19.664,30.79-45.927,30.79-73.949V0
			L354.025,48.099z M30.112,45.854v-5.371l98.776,30.098c-13.627,13.847-24.293,30.612-30.965,49.265
			C59.931,116.262,30.112,84.452,30.112,45.854z M385.175,438.479l-47.278,15.4c-17.955,17.955-38.388,28.135-64.33,28.135h-35.13
			c-25.889,0-46.338-10.14-64.331-28.135l-47.271-15.398c-20.421-6.829-33.169-27.266-30.314-48.631l13.593-102.745
			c6.605-39.719,9.954-80.603,9.954-121.524v-0.411c0-57.869,47.08-104.949,104.949-104.949h61.97
			c57.869,0,104.949,47.08,104.949,104.949v0.411c0,40.924,3.349,81.809,9.954,121.525l13.596,102.763
			C418.336,411.213,405.591,431.648,385.175,438.479z M481.89,45.854c0,38.598-29.819,70.407-67.811,73.992
			c-6.672-18.652-17.338-35.418-30.965-49.265l98.776-30.098V45.854z"/>
	</g>
</g>
<g>
	<g>
		<path d="M256.001,94.584l-76.383,192.229l37.131,74.262h78.503l37.131-74.262L256.001,94.584z M276.72,331.089h-41.439
			l-22.84-45.68l43.56-109.623l43.56,109.623L276.72,331.089z"/>
	</g>
</g>
<g>
</g>
<g>
</g>
<g>
</g>
<g>
</g>
<g>
</g>
<g>
</g>
<g>
</g>
<g>
</g>
<g>
</g>
<g>
</g>
<g>
</g>
<g>
</g>
<g>
</g>
<g>
</g>
<g>
</g>
</svg>
